<svg height="512pt" viewBox="0 -12 512.00007 512" width="512pt" xmlns="http://www.w3.org/2000/svg"><path d="m509.523438 186.699219-17.484376 17.285156-22.402343 23.320313c-22.292969 20.785156-22.304688 20.121093-23.039063 23.507812-15.074218 68.542969-13.753906 63.785156-15.09375 65.707031l-37.144531 53.359375c-1.433594 2.058594-3.707031 3.355469-6.210937 3.554688-54.867188 4.214844-52.5 3.40625-55.367188 5.910156-26.300781 22.925781-26.371094 22.125-26.996094 26.15625-4.632812 30.507812-4.039062 30.082031-6.574218 32.65625-15.78125 15.996094-6.078126 6.164062-47.273438 47.894531-3.230469 3.285157-8.507812 3.324219-11.789062.09375l-33.488282-32.957031c-3.605468-3.542969-3.261718-9.441406.726563-12.539062l34.039062-26.476563c2.796875-2.171875 3.917969-5.867187 2.796875-9.222656l-3.105468-11.449219c-12.960938-36.359375-9.878907-27.484375-15.199219-43.46875-1.109375-3.3125-4.164063-5.589844-7.65625-5.703125l-9.605469-.3125c-4.1875-.132813-7.625-3.355469-8.039062-7.53125l-5.882813-60.007813c-.425781-4.277343-4.019531-7.539062-8.308594-7.539062-2.210937 0-9.058593.820312-11.101562-5.910156l-7.210938-23.683594c-.789062-2.605469-2.804687-4.652344-5.390625-5.503906l-35.304687-11.550782c-1.402344-.46875-12.828125-7.523437-13.546875-7.980468.011718 0 .019531 0 .03125.011718-.011719-.011718-.03125-.019531-.042969-.019531-5.054687-3.109375-3.921875-8.03125-3.582031-13.867187.375-6.242188-5.992188-10.65625-11.707032-8.125-33.144531 14.667968-31.492187 14.316406-34.289062 14.140625l-13.148438-.855469c-4.28125-.277344-7.65625-3.746094-7.8125-8.039062l-.070312-2.242188c-.199219-5.660156-5.871094-9.496094-11.199219-7.550781-3.199219 1.164062-6.8125.269531-9.109375-2.316407l-20.847656-23.601562c-2.015625-2.273438-2.628906-5.472656-1.609375-8.328125l7.757813-21.710937c.988281-2.773438 3.367187-4.820313 6.242187-5.382813 32.160156-6.3125 30.5625-5.9375 31.496094-6.28125 3.03125-1.050781 5.234375-3.773437 5.566406-7.035156 4.769531-46.960938 4.632813-43.925781 4.226563-45.765625l-4.414063-20.078125c-1.027344-4.714844 2.128906-9.316407 6.898437-10.042969l20.410157-3.105469c2.824219-.425781 5.671875.613281 7.550781 2.773438l12.332031 14.144531c2.597657 2.992188 6.9375 3.742188 10.386719 1.789062l16.742188-9.441406c3.460937-1.953125 5.058593-6.066406 3.835937-9.847656l-5.152344-15.832031c-1.578125-4.851563 1.527344-9.980469 6.5625-10.824219l40.625-6.761719c4.050781-.675781 7.988281 1.695313 9.289063 5.589844l11.476562 34.433594c1.371094 4.09375 5.628906 6.472656 9.824219 5.496093l21.847656-5.121093c5.710938-1.332031 6.523438-7.210938 6.4375-7.210938.988281-4.683593 5.722657-7.582031 10.355469-6.3125l23.164062 6.355469c3.378907.933594 6.972657-.34375 9.007813-3.1875l5.917969-8.289062c3.867187-5.425782 12.21875-4.355469 14.585937 1.867187 13.253907 34.640625 12.515625 34.859375 16.433594 36.824219 27.953125 13.972656 16.160156 8.160156 51.71875 25.480468 29.269531 15.039063 28.15625 14.925782 31.203125 14.78125 43.25-2.097656 42.460938-2.816406 45.816406.039063 48.167969 40.96875 45.476563 39.679687 49.714844 39.679687h11.527344c4.230468 0 7.792968 3.167969 8.289062 7.367188l3.78125 31.875c.300782 2.558594-.589844 5.113281-2.417968 6.917969zm0 0" fill="#1ab975"/><path d="m509.523438 186.699219-17.484376 17.285156-22.402343 23.320313c-22.292969 20.785156-22.304688 20.121093-23.039063 23.507812-15.074218 68.542969-13.753906 63.785156-15.09375 65.707031l-37.144531 53.359375c-1.433594 2.058594-3.707031 3.355469-6.210937 3.554688-54.867188 4.214844-52.5 3.40625-55.367188 5.910156-26.300781 22.925781-26.371094 22.125-26.996094 26.15625-4.632812 30.507812-4.039062 30.082031-6.574218 32.65625l-12.195313 12.359375-28.9375-28.492187c-3.605469-3.539063-3.261719-9.441407.726563-12.535157l34.039062-26.476562c7.285156-5.660157 1.539062-13.015625-15.519531-64.144531-1.101563-3.3125-4.152344-5.585938-7.644531-5.699219l-9.609376-.3125c-4.195312-.136719-7.632812-3.355469-8.039062-7.53125l-5.886719-60.007813c-.417969-4.28125-4.011719-7.53125-8.300781-7.53125-2.222656 0-9.058594.8125-11.113281-5.921875l-7.199219-23.679687c-.800781-2.597656-2.804688-4.65625-5.390625-5.507813l-35.316406-11.550781c-1.394531-.457031-12.820313-7.519531-13.535157-7.976562.007813 0 .019532 0 .03125.011718-.011718-.011718-.03125-.023437-.042968-.023437-5.054688-3.109375-3.925782-7.988281-3.582032-13.867188.371094-6.242187-5.996093-10.65625-11.707031-8.121093-33.144531 14.667968-31.496093 14.3125-34.289062 14.136718l-13.160157-.851562c-4.28125-.269532-7.65625-3.75-7.800781-8.039063l-.074219-2.246093c-.195312-5.660157-5.867187-9.492188-11.195312-7.550782-3.199219 1.164063-6.824219.269532-9.109375-2.316406l-28.378906-34.140625c3.03125-1.050781 5.234375-3.773437 5.566406-7.035156 4.769531-46.960938 4.632813-43.925781 4.226563-45.765625l-4.414063-20.078125c-1.027344-4.714844 2.128906-9.316407 6.898437-10.042969l20.410157-3.105469c2.824219-.425781 5.671875.613281 7.550781 2.773438l12.332031 14.144531c2.597657 2.992188 6.9375 3.742188 10.386719 1.789062l16.742188-9.441406c3.460937-1.953125 5.058593-6.066406 3.835937-9.847656l-5.152344-15.832031c-1.578125-4.851563 1.527344-9.980469 6.5625-10.824219l40.625-6.761719c4.050781-.675781 7.988281 1.695313 9.289063 5.589844l11.476562 34.433594c1.371094 4.09375 5.628906 6.472656 9.824219 5.496093l21.847656-5.121093c5.710938-1.332031 6.523438-7.210938 6.4375-7.210938.988281-4.683593 5.722657-7.582031 10.355469-6.3125l23.164062 6.355469c3.378907.933594 6.972657-.34375 9.007813-3.1875l5.917969-8.289062c3.867187-5.425782 12.21875-4.355469 14.585937 1.867187 13.253907 34.640625 12.515625 34.859375 16.433594 36.824219 27.953125 13.972656 16.160156 8.160156 51.71875 25.480468 29.269531 15.039063 28.15625 14.925782 31.203125 14.78125 43.25-2.097656 42.460938-2.816406 45.816406.039063 48.167969 40.96875 45.476563 39.679687 49.714844 39.679687h11.527344c4.230468 0 7.792968 3.167969 8.289062 7.367188l3.78125 31.875c.300782 2.558594-.589844 5.113281-2.417968 6.917969zm0 0" fill="#1ed688"/></svg>