<svg id="Capa_1" enable-background="new 0 0 512 512" height="512" viewBox="0 0 512 512" width="512" xmlns="http://www.w3.org/2000/svg"><g id="XMLID_991_"><path id="XMLID_322_" d="m10.186 10h376v492h-376z" fill="#fff3da"/><g id="XMLID_2117_"><path id="XMLID_2114_" d="m275.021 423.318-8.476 78.682 63.902-46.682z" fill="#8aa8bd"/><path id="XMLID_2075_" d="m348.917 147.537h64v312.73h-64z" fill="#66dff6" transform="matrix(.866 .5 -.5 .866 202.984 -149.743)"/><path id="XMLID_1437_" d="m486.812 184.486-55.426-32 10.723-18.573c8.836-15.305 28.407-20.549 43.713-11.713 15.305 8.837 20.549 28.408 11.713 43.713z" fill="#ff7d97"/></g><g id="XMLID_1217_"><path id="XMLID_1218_" d="m299.186 162h-202c-5.522 0-10 4.477-10 10s4.478 10 10 10h202c5.522 0 10-4.477 10-10s-4.477-10-10-10z"/><path id="XMLID_1262_" d="m97.186 238h66.667c5.522 0 10-4.477 10-10s-4.478-10-10-10h-66.667c-5.522 0-10 4.477-10 10s4.478 10 10 10z"/><path id="XMLID_1263_" d="m299.186 218h-74.251c-5.522 0-10 4.477-10 10s4.478 10 10 10h74.251c5.522 0 10-4.477 10-10s-4.477-10-10-10z"/><path id="XMLID_1284_" d="m299.186 106h-202c-5.522 0-10 4.477-10 10s4.478 10 10 10h202c5.522 0 10-4.477 10-10s-4.477-10-10-10z"/><path id="XMLID_1309_" d="m309.186 284c0-5.523-4.478-10-10-10h-202c-5.522 0-10 4.477-10 10s4.478 10 10 10h202c5.523 0 10-4.477 10-10z"/><path id="XMLID_1334_" d="m97.186 350h51.5c5.522 0 10-4.477 10-10s-4.478-10-10-10h-51.5c-5.522 0-10 4.477-10 10s4.478 10 10 10z"/><path id="XMLID_1337_" d="m266.186 340c0-5.523-4.478-10-10-10h-62.5c-5.522 0-10 4.477-10 10s4.478 10 10 10h62.5c5.523 0 10-4.477 10-10z"/><path id="XMLID_1338_" d="m97.186 406h88c5.522 0 10-4.477 10-10s-4.478-10-10-10h-88c-5.522 0-10 4.477-10 10s4.478 10 10 10z"/><path id="XMLID_1350_" d="m490.822 113.54c-20.057-11.58-45.793-4.683-57.373 15.373l-37.263 64.541v-53.454c0-5.523-4.478-10-10-10s-10 4.477-10 10v88c0 .03.004.059.004.088l-109.83 190.23c-.696 1.206-1.133 2.544-1.282 3.929l-7.514 69.753h-237.378v-472h356v30c0 5.523 4.478 10 10 10s10-4.477 10-10v-40c0-5.523-4.478-10-10-10h-376c-5.523 0-10 4.477-10 10v492c0 5.523 4.478 10 10 10h376c5.522 0 10-4.477 10-10v-140.545l110.009-190.541c11.579-20.057 4.683-45.794-15.373-57.374zm-164.036 328.118-38.105-22 146.366-253.512 38.105 22zm-43.467-2.002 28.83 16.645-33.239 24.282zm197.503-308.795c10.505 6.066 14.118 19.547 8.053 30.053l-5.723 9.913-38.105-22 5.723-9.913c6.065-10.505 19.549-14.117 30.052-8.053zm-104.636 361.139h-79.001l39.16-28.607c1.125-.821 2.065-1.869 2.762-3.075l37.079-64.223z"/><path id="XMLID_1354_" d="m386.186 85c-2.64 0-5.21 1.07-7.07 2.93-1.859 1.86-2.93 4.44-2.93 7.07 0 2.64 1.07 5.21 2.93 7.07s4.44 2.93 7.07 2.93 5.21-1.07 7.07-2.93c1.859-1.86 2.93-4.44 2.93-7.07s-1.07-5.21-2.93-7.07-4.43-2.93-7.07-2.93z"/></g></g></svg>